# xmcd CD database file
#
# Track frame offsets:
#	150
#	29167
#	59080
#	80805
#	101373
#	130392
#	152518
#	172054
#	191469
#	213166
#	237545
#	254974
#	276406
#	293968
#	309353
#
# Disc length: 4556 seconds
#
# Revision: 0
# Processed by: cddbd v1.5.2PL0 Copyright (c) Steve Scherf et al.
# Submitted via: CDex 1.51
#
DISCID=ee11ca0f
DTITLE=Various Artist - Best New Age [CD3)
DYEAR=2007
DGENRE=New Age
TTITLE0=Relaxation
TTITLE1=Sea Of Tranquility
TTITLE2=Waters Of Eden
TTITLE3=Sleep Tight
TTITLE4=A Walk By The Lake
TTITLE5=Black Rain-Grey Snow
TTITLE6=Woodlands
TTITLE7=Summer Solstice
TTITLE8=Sweet As U R
TTITLE9=Silent Prayer
TTITLE10=Sea Of Vapours
TTITLE11=Sea Breeze
TTITLE12=To The Willow
TTITLE13=Big Salmon
TTITLE14=The Alluvial Plains
EXTD=YEAR: 2007
EXTT0=
EXTT1=
EXTT2=
EXTT3=
EXTT4=
EXTT5=
EXTT6=
EXTT7=
EXTT8=
EXTT9=
EXTT10=
EXTT11=
EXTT12=
EXTT13=
EXTT14=
PLAYORDER=
